<?xml version="1.0" encoding="UTF-8" standalone="no"?>
<!DOCTYPE svg PUBLIC "-//W3C//DTD SVG 1.1//EN"
 "http://www.w3.org/Graphics/SVG/1.1/DTD/svg11.dtd">
<!-- Generated by graphviz version 2.38.0 (20140413.2041)
 -->
<!-- Title: G Pages: 1 -->
<svg width="429pt" height="382pt"
 viewBox="0.00 0.00 428.96 382.00" xmlns="http://www.w3.org/2000/svg" xmlns:xlink="http://www.w3.org/1999/xlink">
<g id="graph0" class="graph" transform="scale(1 1) rotate(0) translate(4 378)">
<title>G</title>
<polygon fill="white" stroke="none" points="-4,4 -4,-378 424.957,-378 424.957,4 -4,4"/>
<g id="clust1" class="cluster"><title>cluster_0</title>
<polygon fill="lightgrey" stroke="lightgrey" points="107.766,-8 107.766,-283 232.957,-283 232.957,-8 107.766,-8"/>
<text text-anchor="middle" x="170.361" y="-267.8" font-family="Times,serif" font-size="14.00">process #1</text>
</g>
<g id="clust2" class="cluster"><title>cluster_1</title>
<polygon fill="none" stroke="blue" points="8,-291 8,-366 412.957,-366 412.957,-291 8,-291"/>
<text text-anchor="middle" x="210.478" y="-350.8" font-family="Times,serif" font-size="14.00">process #2</text>
</g>
<!-- A1 -->
<g id="node1" class="node"><title>A1</title>
<ellipse fill="white" stroke="white" cx="170.361" cy="-234" rx="54.6905" ry="18"/>
<text text-anchor="middle" x="170.361" y="-230.3" font-family="Times,serif" font-size="14.00">Algorithm 1</text>
</g>
<!-- end -->
<g id="node10" class="node"><title>end</title>
<ellipse fill="none" stroke="black" cx="287.957" cy="-70" rx="27" ry="18"/>
<text text-anchor="middle" x="287.957" y="-66.3" font-family="Times,serif" font-size="14.00">end</text>
</g>
<!-- A1&#45;&gt;end -->
<g id="edge5" class="edge"><title>A1&#45;&gt;end</title>
<path fill="none" stroke="black" d="M211.404,-221.9C219.288,-218.105 226.963,-213.223 232.957,-207 262.304,-176.526 276.275,-128.201 282.485,-97.8389"/>
<polygon fill="black" stroke="black" points="285.944,-98.3846 284.37,-87.9073 279.067,-97.079 285.944,-98.3846"/>
</g>
<!-- A2 -->
<g id="node2" class="node"><title>A2</title>
<ellipse fill="white" stroke="white" cx="170.361" cy="-180" rx="54.6905" ry="18"/>
<text text-anchor="middle" x="170.361" y="-176.3" font-family="Times,serif" font-size="14.00">Algorithm 2</text>
</g>
<!-- dots -->
<g id="node3" class="node"><title>dots</title>
<ellipse fill="white" stroke="white" cx="170.361" cy="-107" rx="27" ry="37.4533"/>
<text text-anchor="middle" x="170.361" y="-118.3" font-family="Times,serif" font-size="14.00">.</text>
<text text-anchor="middle" x="170.361" y="-103.3" font-family="Times,serif" font-size="14.00">.</text>
<text text-anchor="middle" x="170.361" y="-88.3" font-family="Times,serif" font-size="14.00">.</text>
</g>
<!-- dots&#45;&gt;end -->
<g id="edge9" class="edge"><title>dots&#45;&gt;end</title>
<path fill="none" stroke="black" d="M196.729,-98.8802C213.44,-93.5315 235.498,-86.4712 253.621,-80.6703"/>
<polygon fill="black" stroke="black" points="254.768,-83.978 263.225,-77.596 252.634,-77.3111 254.768,-83.978"/>
</g>
<!-- An -->
<g id="node4" class="node"><title>An</title>
<ellipse fill="white" stroke="white" cx="170.361" cy="-34" rx="54.6905" ry="18"/>
<text text-anchor="middle" x="170.361" y="-30.3" font-family="Times,serif" font-size="14.00">Algorithm n</text>
</g>
<!-- An&#45;&gt;end -->
<g id="edge7" class="edge"><title>An&#45;&gt;end</title>
<path fill="none" stroke="black" d="M219.046,-42.1931C232.033,-45.9975 245.724,-50.488 257.383,-54.8132"/>
<polygon fill="black" stroke="black" points="256.449,-58.2045 267.038,-58.5502 258.975,-51.6764 256.449,-58.2045"/>
</g>
<!-- An&#45;&gt;end -->
<g id="edge11" class="edge"><title>An&#45;&gt;end</title>
<path fill="none" stroke="black" d="M200.531,-49.0367C215.929,-54.7667 234.953,-60.8047 251.229,-65.1655"/>
<polygon fill="black" stroke="black" points="250.397,-68.5651 260.952,-67.6463 252.128,-61.7825 250.397,-68.5651"/>
</g>
<!-- b0 -->
<g id="node5" class="node"><title>b0</title>
<ellipse fill="lightgrey" stroke="black" cx="43" cy="-317" rx="27" ry="18"/>
<text text-anchor="middle" x="43" y="-313.3" font-family="Times,serif" font-size="14.00">b0</text>
</g>
<!-- b1 -->
<g id="node6" class="node"><title>b1</title>
<ellipse fill="lightgrey" stroke="black" cx="170.361" cy="-317" rx="27" ry="18"/>
<text text-anchor="middle" x="170.361" y="-313.3" font-family="Times,serif" font-size="14.00">b1</text>
</g>
<!-- b0&#45;&gt;b1 -->
<g id="edge1" class="edge"><title>b0&#45;&gt;b1</title>
<path fill="none" stroke="black" d="M70.2799,-317C88.4994,-317 112.998,-317 133.076,-317"/>
<polygon fill="black" stroke="black" points="133.116,-320.5 143.116,-317 133.116,-313.5 133.116,-320.5"/>
</g>
<!-- b2 -->
<g id="node7" class="node"><title>b2</title>
<ellipse fill="lightgrey" stroke="black" cx="287.957" cy="-317" rx="27" ry="18"/>
<text text-anchor="middle" x="287.957" y="-313.3" font-family="Times,serif" font-size="14.00">b2</text>
</g>
<!-- b1&#45;&gt;b2 -->
<g id="edge2" class="edge"><title>b1&#45;&gt;b2</title>
<path fill="none" stroke="black" d="M197.592,-317C213.258,-317 233.388,-317 250.575,-317"/>
<polygon fill="black" stroke="black" points="250.83,-320.5 260.83,-317 250.83,-313.5 250.83,-320.5"/>
</g>
<!-- b3 -->
<g id="node8" class="node"><title>b3</title>
<ellipse fill="lightgrey" stroke="black" cx="377.957" cy="-317" rx="27" ry="18"/>
<text text-anchor="middle" x="377.957" y="-313.3" font-family="Times,serif" font-size="14.00">b3</text>
</g>
<!-- b2&#45;&gt;b3 -->
<g id="edge3" class="edge"><title>b2&#45;&gt;b3</title>
<path fill="none" stroke="black" d="M315.36,-317C323.35,-317 332.267,-317 340.781,-317"/>
<polygon fill="black" stroke="black" points="340.876,-320.5 350.876,-317 340.876,-313.5 340.876,-320.5"/>
</g>
<!-- start -->
<g id="node9" class="node"><title>start</title>
<polygon fill="none" stroke="black" points="43,-88 6.46594,-70 43,-52 79.5341,-70 43,-88"/>
<polyline fill="none" stroke="black" points="17.2304,-75.3035 17.2304,-64.6965 "/>
<polyline fill="none" stroke="black" points="32.2356,-57.3035 53.7644,-57.3035 "/>
<polyline fill="none" stroke="black" points="68.7696,-64.6965 68.7696,-75.3035 "/>
<polyline fill="none" stroke="black" points="53.7644,-82.6965 32.2356,-82.6965 "/>
<text text-anchor="middle" x="43" y="-66.3" font-family="Times,serif" font-size="14.00">start</text>
</g>
<!-- start&#45;&gt;A1 -->
<g id="edge4" class="edge"><title>start&#45;&gt;A1</title>
<path fill="none" stroke="black" d="M47.5317,-86.117C54.4522,-114.182 72.3128,-172.336 107.766,-207 111.68,-210.826 116.225,-214.157 121.04,-217.044"/>
<polygon fill="black" stroke="black" points="119.448,-220.162 129.919,-221.775 122.739,-213.984 119.448,-220.162"/>
</g>
<!-- start&#45;&gt;dots -->
<g id="edge8" class="edge"><title>start&#45;&gt;dots</title>
<path fill="none" stroke="black" d="M66.4121,-76.6149C85.1379,-82.1417 112.179,-90.1228 133.848,-96.5185"/>
<polygon fill="black" stroke="black" points="133.104,-99.9478 143.685,-99.4218 135.085,-93.2342 133.104,-99.9478"/>
</g>
<!-- start&#45;&gt;An -->
<g id="edge6" class="edge"><title>start&#45;&gt;An</title>
<path fill="none" stroke="black" d="M60.3888,-60.5624C73.3281,-55.397 92.2138,-49.3047 110.641,-44.1246"/>
<polygon fill="black" stroke="black" points="111.772,-47.444 120.495,-41.4308 109.926,-40.6918 111.772,-47.444"/>
</g>
<!-- start&#45;&gt;An -->
<g id="edge10" class="edge"><title>start&#45;&gt;An</title>
<path fill="none" stroke="black" d="M74.0272,-67.2363C90.5289,-63.4891 111.22,-57.711 129.105,-51.9108"/>
<polygon fill="black" stroke="black" points="130.335,-55.1901 138.708,-48.6989 128.115,-48.5516 130.335,-55.1901"/>
</g>
</g>
</svg>
