<?xml version="1.0" encoding="UTF-8" standalone="no"?>
<!DOCTYPE svg PUBLIC "-//W3C//DTD SVG 1.1//EN"
 "http://www.w3.org/Graphics/SVG/1.1/DTD/svg11.dtd">
<!-- Generated by graphviz version 2.38.0 (20140413.2041)
 -->
<!-- Title: %3 Pages: 1 -->
<svg width="705pt" height="192pt"
 viewBox="0.00 0.00 704.60 192.00" xmlns="http://www.w3.org/2000/svg" xmlns:xlink="http://www.w3.org/1999/xlink">
<g id="graph0" class="graph" transform="scale(1 1) rotate(0) translate(4 188)">
<title>%3</title>
<polygon fill="white" stroke="none" points="-4,4 -4,-188 700.6,-188 700.6,4 -4,4"/>
<!-- dummy1 -->
<g id="node1" class="node"><title>dummy1</title>
<ellipse fill="black" stroke="black" cx="91.8" cy="-135" rx="1.8" ry="1.8"/>
</g>
<!-- continuous -->
<g id="node3" class="node"><title>continuous</title>
<polygon fill="none" stroke="black" points="373.6,-184 224.6,-184 224.6,-148 373.6,-148 373.6,-184"/>
<text text-anchor="middle" x="299.1" y="-162.3" font-family="Times,serif" font-size="14.00">continuous (real&#45;valued)</text>
</g>
<!-- dummy1&#45;&gt;continuous -->
<g id="edge2" class="edge"><title>dummy1&#45;&gt;continuous</title>
<path fill="none" stroke="black" d="M93.7153,-135.138C101.773,-136.355 161.557,-145.382 214.399,-153.361"/>
<polygon fill="black" stroke="black" points="214.104,-156.856 224.514,-154.889 215.149,-149.935 214.104,-156.856"/>
</g>
<!-- discrete -->
<g id="node7" class="node"><title>discrete</title>
<polygon fill="none" stroke="black" points="188.6,-130 129.6,-130 129.6,-94 188.6,-94 188.6,-130"/>
<text text-anchor="middle" x="159.1" y="-108.3" font-family="Times,serif" font-size="14.00">discrete</text>
</g>
<!-- dummy1&#45;&gt;discrete -->
<g id="edge3" class="edge"><title>dummy1&#45;&gt;discrete</title>
<path fill="none" stroke="black" d="M93.9334,-134.601C97.3544,-133.396 108.064,-129.624 119.778,-125.498"/>
<polygon fill="black" stroke="black" points="120.999,-128.779 129.268,-122.155 118.674,-122.176 120.999,-128.779"/>
</g>
<!-- dummy2 -->
<g id="node2" class="node"><title>dummy2</title>
<ellipse fill="black" stroke="black" cx="27" cy="-173" rx="1.8" ry="1.8"/>
</g>
<!-- numerical -->
<g id="node8" class="node"><title>numerical</title>
<polygon fill="none" stroke="black" points="480.6,-157 409.6,-157 409.6,-121 480.6,-121 480.6,-157"/>
<text text-anchor="middle" x="445.1" y="-135.3" font-family="Times,serif" font-size="14.00">numerical</text>
</g>
<!-- continuous&#45;&gt;numerical -->
<g id="edge7" class="edge"><title>continuous&#45;&gt;numerical</title>
<path fill="none" stroke="black" d="M373.787,-152.184C382.545,-150.542 391.27,-148.906 399.442,-147.373"/>
<polygon fill="black" stroke="black" points="400.276,-150.778 409.46,-145.495 398.986,-143.898 400.276,-150.778"/>
</g>
<!-- ordered -->
<g id="node4" class="node"><title>ordered</title>
<polygon fill="none" stroke="black" points="355.6,-130 242.6,-130 242.6,-94 355.6,-94 355.6,-130"/>
<text text-anchor="middle" x="299.1" y="-108.3" font-family="Times,serif" font-size="14.00">ordered (integers)</text>
</g>
<!-- ordered&#45;&gt;numerical -->
<g id="edge6" class="edge"><title>ordered&#45;&gt;numerical</title>
<path fill="none" stroke="black" d="M355.774,-122.439C370.154,-125.135 385.45,-128.003 399.202,-130.582"/>
<polygon fill="black" stroke="black" points="398.903,-134.086 409.376,-132.489 400.193,-127.206 398.903,-134.086"/>
</g>
<!-- unordered -->
<g id="node5" class="node"><title>unordered</title>
<polygon fill="none" stroke="black" points="368.6,-76 229.6,-76 229.6,-40 368.6,-40 368.6,-76"/>
<text text-anchor="middle" x="299.1" y="-54.3" font-family="Times,serif" font-size="14.00">unordered (categories)</text>
</g>
<!-- finite -->
<g id="node12" class="node"><title>finite</title>
<polygon fill="none" stroke="black" points="472.1,-90 418.1,-90 418.1,-54 472.1,-54 472.1,-90"/>
<text text-anchor="middle" x="445.1" y="-68.3" font-family="Times,serif" font-size="14.00">finite</text>
</g>
<!-- unordered&#45;&gt;finite -->
<g id="edge12" class="edge"><title>unordered&#45;&gt;finite</title>
<path fill="none" stroke="black" d="M368.726,-64.672C382.285,-65.9902 396.003,-67.3239 407.952,-68.4857"/>
<polygon fill="black" stroke="black" points="407.658,-71.9734 417.95,-69.4576 408.335,-65.0063 407.658,-71.9734"/>
</g>
<!-- infinite -->
<g id="node13" class="node"><title>infinite</title>
<polygon fill="none" stroke="black" points="473.1,-36 417.1,-36 417.1,-0 473.1,-0 473.1,-36"/>
<text text-anchor="middle" x="445.1" y="-14.3" font-family="Times,serif" font-size="14.00">infinite</text>
</g>
<!-- unordered&#45;&gt;infinite -->
<g id="edge13" class="edge"><title>unordered&#45;&gt;infinite</title>
<path fill="none" stroke="black" d="M364.939,-39.9893C379.429,-35.9641 394.31,-31.8305 407.203,-28.2491"/>
<polygon fill="black" stroke="black" points="408.373,-31.5567 417.071,-25.5079 406.5,-24.8121 408.373,-31.5567"/>
</g>
<!-- V -->
<g id="node6" class="node"><title>V</title>
<polygon fill="none" stroke="black" points="54,-153 0,-153 0,-117 54,-117 54,-153"/>
<text text-anchor="middle" x="27" y="-131.3" font-family="Times,serif" font-size="14.00">V</text>
</g>
<!-- V&#45;&gt;dummy1 -->
<g id="edge1" class="edge"><title>V&#45;&gt;dummy1</title>
<path fill="none" stroke="black" d="M54.269,-135C63.2095,-135 72.7205,-135 79.796,-135"/>
<polygon fill="black" stroke="black" points="79.9362,-138.5 89.9361,-135 79.9361,-131.5 79.9362,-138.5"/>
</g>
<!-- discrete&#45;&gt;ordered -->
<g id="edge4" class="edge"><title>discrete&#45;&gt;ordered</title>
<path fill="none" stroke="black" d="M188.694,-112C201.452,-112 217.055,-112 232.437,-112"/>
<polygon fill="black" stroke="black" points="232.481,-115.5 242.481,-112 232.481,-108.5 232.481,-115.5"/>
</g>
<!-- discrete&#45;&gt;unordered -->
<g id="edge5" class="edge"><title>discrete&#45;&gt;unordered</title>
<path fill="none" stroke="black" d="M188.886,-99.6288C200,-94.9367 212.849,-89.6153 224.6,-85 229.108,-83.2296 233.784,-81.429 238.495,-79.641"/>
<polygon fill="black" stroke="black" points="240.043,-82.7984 248.171,-76.0022 237.579,-76.2465 240.043,-82.7984"/>
</g>
<!-- lower&#45;bound -->
<g id="node9" class="node"><title>lower&#45;bound</title>
<polygon fill="none" stroke="black" points="602.6,-184 516.6,-184 516.6,-148 602.6,-148 602.6,-184"/>
<text text-anchor="middle" x="559.6" y="-162.3" font-family="Times,serif" font-size="14.00">lower&#45;bound</text>
</g>
<!-- numerical&#45;&gt;lower&#45;bound -->
<g id="edge8" class="edge"><title>numerical&#45;&gt;lower&#45;bound</title>
<path fill="none" stroke="black" d="M480.772,-147.321C488.934,-149.28 497.81,-151.41 506.55,-153.508"/>
<polygon fill="black" stroke="black" points="505.775,-156.921 516.315,-155.852 507.408,-150.114 505.775,-156.921"/>
</g>
<!-- upper&#45;bound -->
<g id="node10" class="node"><title>upper&#45;bound</title>
<polygon fill="none" stroke="black" points="602.6,-130 516.6,-130 516.6,-94 602.6,-94 602.6,-130"/>
<text text-anchor="middle" x="559.6" y="-108.3" font-family="Times,serif" font-size="14.00">upper&#45;bound</text>
</g>
<!-- numerical&#45;&gt;upper&#45;bound -->
<g id="edge9" class="edge"><title>numerical&#45;&gt;upper&#45;bound</title>
<path fill="none" stroke="black" d="M480.772,-130.679C488.934,-128.72 497.81,-126.59 506.55,-124.492"/>
<polygon fill="black" stroke="black" points="507.408,-127.886 516.315,-122.148 505.775,-121.079 507.408,-127.886"/>
</g>
<!-- interval -->
<g id="node11" class="node"><title>interval</title>
<polygon fill="none" stroke="black" points="696.6,-157 638.6,-157 638.6,-121 696.6,-121 696.6,-157"/>
<text text-anchor="middle" x="667.6" y="-135.3" font-family="Times,serif" font-size="14.00">interval</text>
</g>
<!-- lower&#45;bound&#45;&gt;interval -->
<g id="edge10" class="edge"><title>lower&#45;bound&#45;&gt;interval</title>
<path fill="none" stroke="black" d="M602.799,-155.251C611.336,-153.077 620.264,-150.803 628.645,-148.668"/>
<polygon fill="black" stroke="black" points="629.706,-152.009 638.533,-146.149 627.978,-145.226 629.706,-152.009"/>
</g>
<!-- upper&#45;bound&#45;&gt;interval -->
<g id="edge11" class="edge"><title>upper&#45;bound&#45;&gt;interval</title>
<path fill="none" stroke="black" d="M602.799,-122.749C611.336,-124.923 620.264,-127.197 628.645,-129.332"/>
<polygon fill="black" stroke="black" points="627.978,-132.774 638.533,-131.851 629.706,-125.991 627.978,-132.774"/>
</g>
</g>
</svg>
